<mxfile host="app.diagrams.net" modified="2022-03-14T11:32:22.174Z" agent="5.0 (Windows NT 10.0; Win64; x64) AppleWebKit/537.36 (KHTML, like Gecko) Chrome/99.0.4844.51 Safari/537.36" etag="9M-dvgRZZAkO-uhhJLl4" version="17.1.2" type="github">
  <diagram name="Page-1" id="b520641d-4fe3-3701-9064-5fc419738815">
    <mxGraphModel dx="1028" dy="347" grid="1" gridSize="10" guides="1" tooltips="1" connect="1" arrows="1" fold="1" page="1" pageScale="1" pageWidth="1100" pageHeight="850" background="none" math="0" shadow="0">
      <root>
        <mxCell id="0" />
        <mxCell id="1" parent="0" />
        <mxCell id="DopqoxL8AF5fhxBqymG_-10" style="edgeStyle=orthogonalEdgeStyle;rounded=0;orthogonalLoop=1;jettySize=auto;html=1;entryX=0.25;entryY=0;entryDx=0;entryDy=0;exitX=0.248;exitY=0.864;exitDx=0;exitDy=0;exitPerimeter=0;" edge="1" parent="1" source="DopqoxL8AF5fhxBqymG_-1" target="DopqoxL8AF5fhxBqymG_-5">
          <mxGeometry relative="1" as="geometry" />
        </mxCell>
        <mxCell id="DopqoxL8AF5fhxBqymG_-1" value="D1&amp;nbsp; &amp;nbsp; 学生表" style="html=1;dashed=0;whitespace=wrap;shape=mxgraph.dfd.dataStoreID;align=left;spacingLeft=3;points=[[0,0],[0.5,0],[1,0],[0,0.5],[1,0.5],[0,1],[0.5,1],[1,1]];" vertex="1" parent="1">
          <mxGeometry x="480" y="90" width="110" height="30" as="geometry" />
        </mxCell>
        <mxCell id="DopqoxL8AF5fhxBqymG_-2" value="学生" style="html=1;dashed=0;whitespace=wrap;" vertex="1" parent="1">
          <mxGeometry x="130" y="330" width="100" height="80" as="geometry" />
        </mxCell>
        <mxCell id="DopqoxL8AF5fhxBqymG_-3" value="系统管理人员" style="html=1;dashed=0;whitespace=wrap;" vertex="1" parent="1">
          <mxGeometry x="710" y="320" width="100" height="80" as="geometry" />
        </mxCell>
        <mxCell id="DopqoxL8AF5fhxBqymG_-4" value="职位发布者" style="html=1;dashed=0;whitespace=wrap;" vertex="1" parent="1">
          <mxGeometry x="130" y="600" width="100" height="80" as="geometry" />
        </mxCell>
        <mxCell id="DopqoxL8AF5fhxBqymG_-8" value="" style="edgeStyle=orthogonalEdgeStyle;rounded=0;orthogonalLoop=1;jettySize=auto;html=1;" edge="1" parent="1" source="DopqoxL8AF5fhxBqymG_-5" target="DopqoxL8AF5fhxBqymG_-1">
          <mxGeometry relative="1" as="geometry" />
        </mxCell>
        <mxCell id="DopqoxL8AF5fhxBqymG_-24" style="edgeStyle=orthogonalEdgeStyle;rounded=0;orthogonalLoop=1;jettySize=auto;html=1;entryX=0.288;entryY=0.089;entryDx=0;entryDy=0;entryPerimeter=0;" edge="1" parent="1" source="DopqoxL8AF5fhxBqymG_-5" target="DopqoxL8AF5fhxBqymG_-12">
          <mxGeometry relative="1" as="geometry">
            <Array as="points">
              <mxPoint x="521" y="240" />
              <mxPoint x="521" y="240" />
            </Array>
          </mxGeometry>
        </mxCell>
        <mxCell id="DopqoxL8AF5fhxBqymG_-5" value="&lt;p style=&quot;margin: 0px ; margin-top: 4px ; text-align: center ; text-decoration: underline&quot;&gt;&lt;b&gt;p1&lt;/b&gt;&lt;/p&gt;&lt;hr&gt;&lt;p style=&quot;margin: 0px ; margin-left: 8px&quot;&gt;用户认证及&lt;span&gt;用户&lt;/span&gt;&lt;/p&gt;&lt;p style=&quot;margin: 0px ; margin-left: 8px&quot;&gt;&lt;span&gt;账号管理&lt;/span&gt;&lt;/p&gt;" style="verticalAlign=top;align=left;overflow=fill;fontSize=12;fontFamily=Helvetica;html=1;" vertex="1" parent="1">
          <mxGeometry x="481" y="170" width="108" height="70" as="geometry" />
        </mxCell>
        <mxCell id="DopqoxL8AF5fhxBqymG_-19" value="" style="edgeStyle=orthogonalEdgeStyle;rounded=0;orthogonalLoop=1;jettySize=auto;html=1;" edge="1" parent="1" source="DopqoxL8AF5fhxBqymG_-12" target="DopqoxL8AF5fhxBqymG_-5">
          <mxGeometry relative="1" as="geometry" />
        </mxCell>
        <mxCell id="DopqoxL8AF5fhxBqymG_-12" value="D2&amp;nbsp; &amp;nbsp; 职位发布者表" style="html=1;dashed=0;whitespace=wrap;shape=mxgraph.dfd.dataStoreID;align=left;spacingLeft=3;points=[[0,0],[0.5,0],[1,0],[0,0.5],[1,0.5],[0,1],[0.5,1],[1,1]];" vertex="1" parent="1">
          <mxGeometry x="480" y="290" width="110" height="30" as="geometry" />
        </mxCell>
        <mxCell id="DopqoxL8AF5fhxBqymG_-15" style="edgeStyle=orthogonalEdgeStyle;rounded=0;orthogonalLoop=1;jettySize=auto;html=1;entryX=0.25;entryY=0;entryDx=0;entryDy=0;exitX=0.248;exitY=0.864;exitDx=0;exitDy=0;exitPerimeter=0;" edge="1" parent="1" source="DopqoxL8AF5fhxBqymG_-16" target="DopqoxL8AF5fhxBqymG_-18">
          <mxGeometry relative="1" as="geometry" />
        </mxCell>
        <mxCell id="DopqoxL8AF5fhxBqymG_-16" value="D1&amp;nbsp; &amp;nbsp;账号认证记录表" style="html=1;dashed=0;whitespace=wrap;shape=mxgraph.dfd.dataStoreID;align=left;spacingLeft=3;points=[[0,0],[0.5,0],[1,0],[0,0.5],[1,0.5],[0,1],[0.5,1],[1,1]];" vertex="1" parent="1">
          <mxGeometry x="290" y="90" width="110" height="30" as="geometry" />
        </mxCell>
        <mxCell id="DopqoxL8AF5fhxBqymG_-17" value="" style="edgeStyle=orthogonalEdgeStyle;rounded=0;orthogonalLoop=1;jettySize=auto;html=1;" edge="1" parent="1" source="DopqoxL8AF5fhxBqymG_-18" target="DopqoxL8AF5fhxBqymG_-16">
          <mxGeometry relative="1" as="geometry" />
        </mxCell>
        <mxCell id="DopqoxL8AF5fhxBqymG_-18" value="&lt;p style=&quot;margin: 0px ; margin-top: 4px ; text-align: center ; text-decoration: underline&quot;&gt;&lt;b&gt;p1&lt;/b&gt;&lt;/p&gt;&lt;hr&gt;&lt;p style=&quot;margin: 0px ; margin-left: 8px&quot;&gt;用户认证及&lt;span&gt;用户&lt;/span&gt;&lt;/p&gt;&lt;p style=&quot;margin: 0px ; margin-left: 8px&quot;&gt;&lt;span&gt;账号管理&lt;/span&gt;&lt;/p&gt;" style="verticalAlign=top;align=left;overflow=fill;fontSize=12;fontFamily=Helvetica;html=1;" vertex="1" parent="1">
          <mxGeometry x="291" y="170" width="108" height="70" as="geometry" />
        </mxCell>
        <mxCell id="DopqoxL8AF5fhxBqymG_-26" style="edgeStyle=orthogonalEdgeStyle;rounded=0;orthogonalLoop=1;jettySize=auto;html=1;entryX=0.25;entryY=0;entryDx=0;entryDy=0;exitX=0.248;exitY=0.864;exitDx=0;exitDy=0;exitPerimeter=0;" edge="1" parent="1" source="DopqoxL8AF5fhxBqymG_-27" target="DopqoxL8AF5fhxBqymG_-29">
          <mxGeometry relative="1" as="geometry" />
        </mxCell>
        <mxCell id="DopqoxL8AF5fhxBqymG_-27" value="D1&amp;nbsp; &amp;nbsp;帖子表" style="html=1;dashed=0;whitespace=wrap;shape=mxgraph.dfd.dataStoreID;align=left;spacingLeft=3;points=[[0,0],[0.5,0],[1,0],[0,0.5],[1,0.5],[0,1],[0.5,1],[1,1]];" vertex="1" parent="1">
          <mxGeometry x="300" y="430" width="110" height="30" as="geometry" />
        </mxCell>
        <mxCell id="DopqoxL8AF5fhxBqymG_-28" value="" style="edgeStyle=orthogonalEdgeStyle;rounded=0;orthogonalLoop=1;jettySize=auto;html=1;" edge="1" parent="1" source="DopqoxL8AF5fhxBqymG_-29" target="DopqoxL8AF5fhxBqymG_-27">
          <mxGeometry relative="1" as="geometry" />
        </mxCell>
        <mxCell id="DopqoxL8AF5fhxBqymG_-29" value="&lt;p style=&quot;margin: 0px ; margin-top: 4px ; text-align: center ; text-decoration: underline&quot;&gt;&lt;b&gt;p1&lt;/b&gt;&lt;/p&gt;&lt;hr&gt;&lt;p style=&quot;margin: 0px ; margin-left: 8px&quot;&gt;帖子管理&lt;/p&gt;" style="verticalAlign=top;align=left;overflow=fill;fontSize=12;fontFamily=Helvetica;html=1;" vertex="1" parent="1">
          <mxGeometry x="301" y="510" width="108" height="70" as="geometry" />
        </mxCell>
        <mxCell id="DopqoxL8AF5fhxBqymG_-30" style="edgeStyle=orthogonalEdgeStyle;rounded=0;orthogonalLoop=1;jettySize=auto;html=1;entryX=0.25;entryY=0;entryDx=0;entryDy=0;exitX=0.248;exitY=0.864;exitDx=0;exitDy=0;exitPerimeter=0;" edge="1" parent="1" source="DopqoxL8AF5fhxBqymG_-31" target="DopqoxL8AF5fhxBqymG_-33">
          <mxGeometry relative="1" as="geometry" />
        </mxCell>
        <mxCell id="DopqoxL8AF5fhxBqymG_-31" value="D1&amp;nbsp; &amp;nbsp; 举报信息表" style="html=1;dashed=0;whitespace=wrap;shape=mxgraph.dfd.dataStoreID;align=left;spacingLeft=3;points=[[0,0],[0.5,0],[1,0],[0,0.5],[1,0.5],[0,1],[0.5,1],[1,1]];" vertex="1" parent="1">
          <mxGeometry x="490" y="425" width="110" height="30" as="geometry" />
        </mxCell>
        <mxCell id="DopqoxL8AF5fhxBqymG_-32" value="" style="edgeStyle=orthogonalEdgeStyle;rounded=0;orthogonalLoop=1;jettySize=auto;html=1;" edge="1" parent="1" source="DopqoxL8AF5fhxBqymG_-33" target="DopqoxL8AF5fhxBqymG_-31">
          <mxGeometry relative="1" as="geometry" />
        </mxCell>
        <mxCell id="DopqoxL8AF5fhxBqymG_-33" value="&lt;p style=&quot;margin: 0px ; margin-top: 4px ; text-align: center ; text-decoration: underline&quot;&gt;&lt;b&gt;p1&lt;/b&gt;&lt;/p&gt;&lt;hr&gt;&lt;p style=&quot;margin: 0px ; margin-left: 8px&quot;&gt;举报管理&lt;/p&gt;" style="verticalAlign=top;align=left;overflow=fill;fontSize=12;fontFamily=Helvetica;html=1;" vertex="1" parent="1">
          <mxGeometry x="491" y="505" width="108" height="70" as="geometry" />
        </mxCell>
        <mxCell id="DopqoxL8AF5fhxBqymG_-34" style="edgeStyle=orthogonalEdgeStyle;rounded=0;orthogonalLoop=1;jettySize=auto;html=1;entryX=0.25;entryY=0;entryDx=0;entryDy=0;exitX=0.248;exitY=0.864;exitDx=0;exitDy=0;exitPerimeter=0;" edge="1" parent="1" source="DopqoxL8AF5fhxBqymG_-35" target="DopqoxL8AF5fhxBqymG_-37">
          <mxGeometry relative="1" as="geometry" />
        </mxCell>
        <mxCell id="DopqoxL8AF5fhxBqymG_-35" value="D1&amp;nbsp; &amp;nbsp; 评论表" style="html=1;dashed=0;whitespace=wrap;shape=mxgraph.dfd.dataStoreID;align=left;spacingLeft=3;points=[[0,0],[0.5,0],[1,0],[0,0.5],[1,0.5],[0,1],[0.5,1],[1,1]];" vertex="1" parent="1">
          <mxGeometry x="330" y="640" width="110" height="30" as="geometry" />
        </mxCell>
        <mxCell id="DopqoxL8AF5fhxBqymG_-36" value="" style="edgeStyle=orthogonalEdgeStyle;rounded=0;orthogonalLoop=1;jettySize=auto;html=1;" edge="1" parent="1" source="DopqoxL8AF5fhxBqymG_-37" target="DopqoxL8AF5fhxBqymG_-35">
          <mxGeometry relative="1" as="geometry" />
        </mxCell>
        <mxCell id="DopqoxL8AF5fhxBqymG_-37" value="&lt;p style=&quot;margin: 0px ; margin-top: 4px ; text-align: center ; text-decoration: underline&quot;&gt;&lt;b&gt;p1&lt;/b&gt;&lt;/p&gt;&lt;hr&gt;&lt;p style=&quot;margin: 0px ; margin-left: 8px&quot;&gt;评论管理&lt;/p&gt;" style="verticalAlign=top;align=left;overflow=fill;fontSize=12;fontFamily=Helvetica;html=1;" vertex="1" parent="1">
          <mxGeometry x="331" y="720" width="108" height="70" as="geometry" />
        </mxCell>
        <mxCell id="DopqoxL8AF5fhxBqymG_-42" style="edgeStyle=orthogonalEdgeStyle;rounded=0;orthogonalLoop=1;jettySize=auto;html=1;entryX=0.25;entryY=0;entryDx=0;entryDy=0;exitX=0.248;exitY=0.864;exitDx=0;exitDy=0;exitPerimeter=0;" edge="1" parent="1" source="DopqoxL8AF5fhxBqymG_-43" target="DopqoxL8AF5fhxBqymG_-45">
          <mxGeometry relative="1" as="geometry" />
        </mxCell>
        <mxCell id="DopqoxL8AF5fhxBqymG_-43" value="D1&amp;nbsp; &amp;nbsp; 招聘信息表" style="html=1;dashed=0;whitespace=wrap;shape=mxgraph.dfd.dataStoreID;align=left;spacingLeft=3;points=[[0,0],[0.5,0],[1,0],[0,0.5],[1,0.5],[0,1],[0.5,1],[1,1]];" vertex="1" parent="1">
          <mxGeometry x="510" y="640" width="110" height="30" as="geometry" />
        </mxCell>
        <mxCell id="DopqoxL8AF5fhxBqymG_-44" value="" style="edgeStyle=orthogonalEdgeStyle;rounded=0;orthogonalLoop=1;jettySize=auto;html=1;" edge="1" parent="1" source="DopqoxL8AF5fhxBqymG_-45" target="DopqoxL8AF5fhxBqymG_-43">
          <mxGeometry relative="1" as="geometry" />
        </mxCell>
        <mxCell id="DopqoxL8AF5fhxBqymG_-45" value="&lt;p style=&quot;margin: 0px ; margin-top: 4px ; text-align: center ; text-decoration: underline&quot;&gt;&lt;b&gt;p1&lt;/b&gt;&lt;/p&gt;&lt;hr&gt;&lt;p style=&quot;margin: 0px ; margin-left: 8px&quot;&gt;招聘管理&lt;/p&gt;" style="verticalAlign=top;align=left;overflow=fill;fontSize=12;fontFamily=Helvetica;html=1;" vertex="1" parent="1">
          <mxGeometry x="511" y="720" width="108" height="70" as="geometry" />
        </mxCell>
      </root>
    </mxGraphModel>
  </diagram>
</mxfile>
